<svg width="14" height="9" viewBox="0 0 14 9" fill="none" xmlns="http://www.w3.org/2000/svg">
<path fill-rule="evenodd" clip-rule="evenodd" d="M0 4.50014C0 4.36753 0.0526784 4.24036 0.146447 4.14659C0.240215 4.05282 0.367392 4.00014 0.5 4.00014H12.293L9.146 0.854143C9.05211 0.760257 8.99937 0.632919 8.99937 0.500143C8.99937 0.367368 9.05211 0.24003 9.146 0.146143C9.23989 0.0522566 9.36722 -0.000488278 9.5 -0.000488281C9.63278 -0.000488284 9.76011 0.0522566 9.854 0.146143L13.854 4.14614C13.9006 4.19259 13.9375 4.24776 13.9627 4.30851C13.9879 4.36925 14.0009 4.43438 14.0009 4.50014C14.0009 4.56591 13.9879 4.63103 13.9627 4.69178C13.9375 4.75252 13.9006 4.8077 13.854 4.85414L9.854 8.85414C9.76011 8.94803 9.63278 9.00077 9.5 9.00077C9.36722 9.00077 9.23989 8.94803 9.146 8.85414C9.05211 8.76026 8.99937 8.63292 8.99937 8.50014C8.99937 8.36737 9.05211 8.24003 9.146 8.14614L12.293 5.00014H0.5C0.367392 5.00014 0.240215 4.94747 0.146447 4.8537C0.0526784 4.75993 0 4.63275 0 4.50014V4.50014Z" fill="black" fill-opacity="0.92"/>
</svg>
