<svg width="39" height="39" viewBox="0 0 39 39" fill="none" xmlns="http://www.w3.org/2000/svg">
<path d="M19.5 0.6875C24.4894 0.6875 29.2744 2.66953 32.8024 6.19755C36.3305 9.72558 38.3125 14.5106 38.3125 19.5C38.3125 24.4894 36.3305 29.2744 32.8024 32.8024C29.2744 36.3305 24.4894 38.3125 19.5 38.3125C14.5106 38.3125 9.72558 36.3305 6.19755 32.8024C2.66953 29.2744 0.6875 24.4894 0.6875 19.5C0.6875 14.5106 2.66953 9.72558 6.19755 6.19755C9.72558 2.66953 14.5106 0.6875 19.5 0.6875ZM19.5 35.625C23.7766 35.625 27.8781 33.9261 30.9021 30.9021C33.9261 27.8781 35.625 23.7766 35.625 19.5C35.625 15.2234 33.9261 11.1219 30.9021 8.0979C27.8781 5.07388 23.7766 3.375 19.5 3.375C15.2234 3.375 11.1219 5.07388 8.0979 8.0979C5.07388 11.1219 3.375 15.2234 3.375 19.5C3.375 23.7766 5.07388 27.8781 8.0979 30.9021C11.1219 33.9261 15.2234 35.625 19.5 35.625ZM17.4844 25.2271L26.0763 19.5L17.4844 13.7729V25.2271ZM17.9305 10.8382L28.4064 17.823C28.6824 18.0071 28.9088 18.2564 29.0653 18.549C29.2219 18.8415 29.3038 19.1682 29.3038 19.5C29.3038 19.8318 29.2219 20.1585 29.0653 20.451C28.9088 20.7436 28.6824 20.9929 28.4064 21.177L17.9305 28.1618C17.627 28.3642 17.2742 28.4803 16.9098 28.4979C16.5454 28.5156 16.1831 28.4339 15.8614 28.2618C15.5398 28.0897 15.2709 27.8335 15.0834 27.5205C14.8959 27.2076 14.7969 26.8496 14.7969 26.4848V12.5125C14.7969 12.1477 14.8959 11.7897 15.0834 11.4768C15.2709 11.1638 15.5398 10.9076 15.8614 10.7355C16.1831 10.5634 16.5454 10.4818 16.9098 10.4994C17.2742 10.517 17.627 10.6332 17.9305 10.8355V10.8382Z" fill="white"/>
</svg>
