<svg width="51" height="47" viewBox="0 0 51 47" fill="none" xmlns="http://www.w3.org/2000/svg">
<rect width="51" height="47" rx="4" fill="#F25767"/>
<g clip-path="url(#clip0_124_3)">
<path d="M15.3468 17.4456C15.3468 17.3274 15.2999 17.2141 15.2163 17.1305C15.1328 17.0469 15.0194 17 14.9013 17H10.4456C10.3274 17 10.2141 17.0469 10.1305 17.1305C10.0469 17.2141 10 17.3274 10 17.4456C10 17.5637 10.0469 17.6771 10.1305 17.7606C10.2141 17.8442 10.3274 17.8911 10.4456 17.8911H14.9013C15.0194 17.8911 15.1328 17.8442 15.2163 17.7606C15.2999 17.6771 15.3468 17.5637 15.3468 17.4456ZM15.3468 20.119C15.3468 20.0008 15.2999 19.8875 15.2163 19.8039C15.1328 19.7204 15.0194 19.6734 14.9013 19.6734H10.4456C10.3274 19.6734 10.2141 19.7204 10.1305 19.8039C10.0469 19.8875 10 20.0008 10 20.119C10 20.2372 10.0469 20.3505 10.1305 20.434C10.2141 20.5176 10.3274 20.5645 10.4456 20.5645H14.9013C15.0194 20.5645 15.1328 20.5176 15.2163 20.434C15.2999 20.3505 15.3468 20.2372 15.3468 20.119ZM14.9013 22.3468C15.0194 22.3468 15.1328 22.3938 15.2163 22.4773C15.2999 22.5609 15.3468 22.6742 15.3468 22.7924C15.3468 22.9106 15.2999 23.0239 15.2163 23.1075C15.1328 23.191 15.0194 23.238 14.9013 23.238H10.4456C10.3274 23.238 10.2141 23.191 10.1305 23.1075C10.0469 23.0239 10 22.9106 10 22.7924C10 22.6742 10.0469 22.5609 10.1305 22.4773C10.2141 22.3938 10.3274 22.3468 10.4456 22.3468H14.9013Z" fill="white"/>
<path d="M39.375 5C40.6016 5 41.778 5.48728 42.6454 6.35463C43.5127 7.22199 44 8.39837 44 9.625V37.375C44 38.6016 43.5127 39.778 42.6454 40.6454C41.778 41.5127 40.6016 42 39.375 42H11.625C10.3984 42 9.22199 41.5127 8.35463 40.6454C7.48728 39.778 7 38.6016 7 37.375V9.625C7 8.39837 7.48728 7.22199 8.35463 6.35463C9.22199 5.48728 10.3984 5 11.625 5H39.375ZM11.625 7.3125C11.0117 7.3125 10.4235 7.55614 9.98982 7.98982C9.55614 8.42349 9.3125 9.01169 9.3125 9.625V11.9375H41.6875V9.625C41.6875 9.01169 41.4439 8.42349 41.0102 7.98982C40.5765 7.55614 39.9883 7.3125 39.375 7.3125H11.625ZM9.3125 14.25V37.375C9.3125 37.9883 9.55614 38.5765 9.98982 39.0102C10.4235 39.4439 11.0117 39.6875 11.625 39.6875H16.25V14.25H9.3125ZM18.5625 14.25V39.6875H39.375C39.9883 39.6875 40.5765 39.4439 41.0102 39.0102C41.4439 38.5765 41.6875 37.9883 41.6875 37.375V14.25H18.5625Z" fill="white"/>
<path d="M25.1316 27.0334C24.7966 27.0334 24.4914 26.9784 24.2161 26.8682C23.9407 26.7581 23.7044 26.5975 23.5071 26.3864C23.3097 26.1753 23.156 25.916 23.0459 25.6085C22.9403 25.2964 22.8875 24.9408 22.8875 24.5415C22.8875 24.1423 22.9472 23.7889 23.0665 23.4814C23.1904 23.1694 23.3556 22.9078 23.5621 22.6967C23.7687 22.4856 24.0096 22.325 24.2849 22.2148C24.5603 22.1047 24.854 22.0496 25.166 22.0496C25.3634 22.0496 25.5401 22.0634 25.6961 22.0909C25.8567 22.1185 25.9944 22.1506 26.1091 22.1873C26.2284 22.224 26.3248 22.2607 26.3982 22.2974C26.4717 22.3341 26.5221 22.3617 26.5497 22.38L26.3569 22.9307C26.3156 22.9032 26.256 22.8734 26.178 22.8412C26.0999 22.8091 26.0105 22.777 25.9095 22.7449C25.8131 22.7127 25.7053 22.6875 25.586 22.6692C25.4712 22.6462 25.3542 22.6347 25.2349 22.6347C24.9825 22.6347 24.7553 22.6783 24.5534 22.7655C24.3515 22.8527 24.1794 22.9789 24.0371 23.1441C23.8949 23.3093 23.7847 23.5113 23.7067 23.7499C23.6333 23.9839 23.5966 24.2478 23.5966 24.5415C23.5966 24.8261 23.6287 25.0853 23.6929 25.3194C23.7618 25.5534 23.8627 25.7554 23.9958 25.9252C24.1289 26.0904 24.2941 26.2189 24.4914 26.3106C24.6934 26.4024 24.9274 26.4483 25.1936 26.4483C25.5011 26.4483 25.7558 26.4162 25.9577 26.3519C26.1596 26.2877 26.311 26.2303 26.412 26.1799L26.5841 26.7305C26.552 26.7535 26.4946 26.7833 26.412 26.82C26.3294 26.8522 26.2261 26.8843 26.1022 26.9164C25.9783 26.9485 25.8338 26.9761 25.6686 26.999C25.5034 27.022 25.3244 27.0334 25.1316 27.0334ZM29.6826 24.9339C29.756 25.0257 29.8478 25.1473 29.9579 25.2987C30.0727 25.4456 30.1897 25.6108 30.309 25.7944C30.4283 25.9733 30.5453 26.1615 30.6601 26.3588C30.7794 26.5562 30.8803 26.7466 30.9629 26.9302H30.2333C30.1415 26.7558 30.0405 26.5791 29.9304 26.4001C29.8248 26.2212 29.717 26.0514 29.6069 25.8907C29.4967 25.7255 29.3866 25.5718 29.2764 25.4295C29.1709 25.2873 29.0745 25.1634 28.9873 25.0578C28.9277 25.0624 28.8657 25.0647 28.8015 25.0647C28.7418 25.0647 28.6798 25.0647 28.6156 25.0647H28.0167V26.9302H27.349V22.2286C27.5371 22.1827 27.746 22.1529 27.9754 22.1391C28.2095 22.1207 28.4229 22.1116 28.6156 22.1116C29.2856 22.1116 29.795 22.2378 30.1438 22.4902C30.4971 22.7426 30.6738 23.1189 30.6738 23.6191C30.6738 23.9358 30.5889 24.2065 30.4191 24.4314C30.2539 24.6563 30.0084 24.8238 29.6826 24.9339ZM28.6707 22.6967C28.3861 22.6967 28.1682 22.7036 28.0167 22.7173V24.514H28.4917C28.7211 24.514 28.9277 24.5025 29.1112 24.4796C29.2948 24.4566 29.4485 24.413 29.5724 24.3488C29.7009 24.2845 29.7996 24.195 29.8684 24.0803C29.9373 23.961 29.9717 23.805 29.9717 23.6122C29.9717 23.4332 29.9373 23.2841 29.8684 23.1648C29.7996 23.0455 29.7055 22.9514 29.5862 22.8825C29.4715 22.8137 29.3338 22.7655 29.1732 22.738C29.0171 22.7105 28.8496 22.6967 28.6707 22.6967ZM33.819 26.2693C33.7732 26.1592 33.7112 26.0192 33.6332 25.8494C33.5598 25.6796 33.4795 25.4961 33.3923 25.2987C33.3051 25.1014 33.211 24.8995 33.11 24.693C33.0137 24.4819 32.9219 24.2845 32.8347 24.101C32.7475 23.9128 32.6649 23.7453 32.5869 23.5985C32.5134 23.4516 32.4538 23.3392 32.4079 23.2612C32.3574 23.8027 32.3161 24.3901 32.284 25.0234C32.2519 25.6521 32.2243 26.2877 32.2014 26.9302H31.5474C31.5658 26.5172 31.5864 26.1018 31.6094 25.6842C31.6323 25.262 31.6576 24.849 31.6851 24.4452C31.7172 24.0367 31.7493 23.6398 31.7815 23.2543C31.8182 22.8688 31.8572 22.5039 31.8985 22.1598H32.4836C32.6075 22.3617 32.7406 22.6003 32.8829 22.8757C33.0251 23.151 33.1674 23.4401 33.3097 23.743C33.4519 24.0413 33.5896 24.3419 33.7227 24.6448C33.8558 24.9431 33.9774 25.2161 34.0875 25.4639C34.1977 25.2161 34.3193 24.9431 34.4523 24.6448C34.5854 24.3419 34.7231 24.0413 34.8654 23.743C35.0076 23.4401 35.1499 23.151 35.2922 22.8757C35.4344 22.6003 35.5675 22.3617 35.6914 22.1598H36.2765C36.4326 23.6971 36.5496 25.2873 36.6276 26.9302H35.9737C35.9507 26.2877 35.9232 25.6521 35.891 25.0234C35.8589 24.3901 35.8176 23.8027 35.7671 23.2612C35.7212 23.3392 35.6593 23.4516 35.5813 23.5985C35.5079 23.7453 35.4275 23.9128 35.3403 24.101C35.2532 24.2845 35.1591 24.4819 35.0581 24.693C34.9617 24.8995 34.87 25.1014 34.7828 25.2987C34.6956 25.4961 34.613 25.6796 34.535 25.8494C34.4615 26.0192 34.4019 26.1592 34.356 26.2693H33.819Z" fill="white"/>
<rect x="10" y="25" width="4" height="1" rx="0.5" fill="white"/>
<rect x="10" y="28" width="3" height="1" rx="0.5" fill="white"/>
</g>
<defs>
<clipPath id="clip0_124_3">
<rect width="37" height="37" fill="white" transform="translate(7 5)"/>
</clipPath>
</defs>
</svg>
