<svg width="74" height="73" viewBox="0 0 74 73" fill="none" xmlns="http://www.w3.org/2000/svg">
<ellipse cx="37" cy="36.5" rx="37" ry="36.5" fill="#FAF4FF"/>
<g clip-path="url(#clip0_117_3)">
<path d="M60.666 38.4768L60.6674 38.4781C61.7364 39.4409 61.6506 41.0769 60.5791 41.9299L60.5779 41.9308L47.191 52.6439C46.284 53.3678 45.1623 53.7577 44.0083 53.7577H12.4167C11.9554 53.7577 11.5755 53.3779 11.5755 52.9166V44.4166C11.5755 43.9553 11.9554 43.5754 12.4167 43.5754H17.3219H17.5259L17.6843 43.447L21.8012 40.1092C23.5588 38.6864 25.7421 37.9088 28 37.9088H42.1667C43.5443 37.9088 44.6301 39.1369 44.3967 40.551C44.219 41.6233 43.1847 42.4244 42.0161 42.4244H35.0833C33.9863 42.4244 33.0911 43.3196 33.0911 44.4166C33.0911 45.5136 33.9863 46.4088 35.0833 46.4088H45.5578C46.979 46.4088 48.3549 45.9318 49.4593 45.0428C49.4597 45.0425 49.4601 45.0422 49.4605 45.0419L57.6402 38.4999L57.642 38.4984C58.5518 37.7647 59.8607 37.7465 60.666 38.4768Z" stroke="#D173CC" stroke-width="1.15104"/>
<line x1="17.6406" y1="43.2619" x2="17.7306" y2="53.8869" stroke="#D173CC" stroke-width="0.885417"/>
<circle cx="16.3568" cy="49.9505" r="0.309896" fill="#D173CC"/>
<circle cx="16.3568" cy="51.1016" r="0.309896" fill="#D173CC"/>
<circle cx="16.3568" cy="52.2525" r="0.309896" fill="#D173CC"/>
<mask id="path-7-inside-1_117_3" fill="white">
<path d="M28.9171 28.1889C28.1343 28.1889 27.546 27.6916 27.305 26.8899H29.3502V26.4569H27.2137C27.1947 26.3133 27.1851 26.1687 27.1851 26.0239C27.1851 25.9524 27.1873 25.8801 27.1907 25.8074H29.3502V25.3743H27.2364C27.368 24.5845 27.7935 23.8588 28.9171 23.8588C29.7513 23.8588 30.1149 24.2154 30.4604 24.8309L30.838 24.6187C30.4901 23.9993 30.0166 23.4258 28.9171 23.4258C27.5412 23.4258 26.7521 24.3728 26.7521 26.0239C26.7521 27.5535 27.6424 28.6219 28.9171 28.6219C30.0166 28.6219 30.4901 28.0486 30.838 27.429L30.4604 27.2168C30.1149 27.8326 29.7513 28.1889 28.9171 28.1889Z"/>
</mask>
<path d="M28.9171 28.1889C28.1343 28.1889 27.546 27.6916 27.305 26.8899H29.3502V26.4569H27.2137C27.1947 26.3133 27.1851 26.1687 27.1851 26.0239C27.1851 25.9524 27.1873 25.8801 27.1907 25.8074H29.3502V25.3743H27.2364C27.368 24.5845 27.7935 23.8588 28.9171 23.8588C29.7513 23.8588 30.1149 24.2154 30.4604 24.8309L30.838 24.6187C30.4901 23.9993 30.0166 23.4258 28.9171 23.4258C27.5412 23.4258 26.7521 24.3728 26.7521 26.0239C26.7521 27.5535 27.6424 28.6219 28.9171 28.6219C30.0166 28.6219 30.4901 28.0486 30.838 27.429L30.4604 27.2168C30.1149 27.8326 29.7513 28.1889 28.9171 28.1889Z" fill="#D173CC"/>
<path d="M27.305 26.8899V24.6764H24.3283L25.1852 27.5271L27.305 26.8899ZM29.3502 26.8899V29.1034H31.5637V26.8899H29.3502ZM29.3502 26.4569H31.5637V24.2433H29.3502V26.4569ZM27.2137 26.4569L25.0193 26.7472L25.2737 28.6704H27.2137V26.4569ZM27.1851 26.0239H24.9715L24.9715 26.0244L27.1851 26.0239ZM27.1907 25.8074V23.5938H25.0801L24.9797 25.7021L27.1907 25.8074ZM29.3502 25.8074V28.0209H31.5637V25.8074H29.3502ZM29.3502 25.3743H31.5637V23.1608H29.3502V25.3743ZM27.2364 25.3743L25.053 25.0104L24.6234 27.5879H27.2364V25.3743ZM30.4604 24.8309L28.5302 25.9145L29.6142 27.8455L31.5448 26.7607L30.4604 24.8309ZM30.838 24.6187L31.9224 26.5485L33.8518 25.4643L32.7679 23.5347L30.838 24.6187ZM30.838 27.429L32.7681 28.5127L33.8515 26.5833L31.9224 25.4993L30.838 27.429ZM30.4604 27.2168L31.5448 25.2871L29.6139 24.2021L28.5301 26.1335L30.4604 27.2168ZM28.9171 25.9754C28.9581 25.9754 29.0227 25.9824 29.1001 26.0094C29.1778 26.0366 29.2489 26.0774 29.3077 26.1254C29.4277 26.2233 29.4394 26.3011 29.4249 26.2527L25.1852 27.5271C25.6581 29.1003 26.9959 30.4025 28.9171 30.4025V25.9754ZM27.305 29.1034H29.3502V24.6764H27.305V29.1034ZM31.5637 26.8899V26.4569H27.1366V26.8899H31.5637ZM29.3502 24.2433H27.2137V28.6704H29.3502V24.2433ZM29.4081 26.1665C29.4018 26.119 29.3986 26.0712 29.3986 26.0233L24.9715 26.0244C24.9716 26.2662 24.9875 26.5076 25.0193 26.7472L29.4081 26.1665ZM29.3986 26.0239C29.3986 25.9963 29.3995 25.9604 29.4018 25.9126L24.9797 25.7021C24.975 25.7999 24.9715 25.9085 24.9715 26.0239H29.3986ZM27.1907 28.0209H29.3502V23.5938H27.1907V28.0209ZM31.5637 25.8074V25.3743H27.1366V25.8074H31.5637ZM29.3502 23.1608H27.2364V27.5879H29.3502V23.1608ZM29.4198 25.7382C29.4308 25.6726 29.4407 25.6536 29.4344 25.6685C29.427 25.6859 29.3953 25.7538 29.3178 25.8362C29.2346 25.9248 29.1303 25.9958 29.0246 26.0384C28.9247 26.0785 28.8758 26.0723 28.9171 26.0723V21.6453C27.8306 21.6453 26.8289 22.02 26.0917 22.8045C25.4167 23.5228 25.1582 24.3792 25.053 25.0104L29.4198 25.7382ZM28.9171 26.0723C28.9698 26.0723 28.9465 26.0781 28.8756 26.0587C28.7966 26.037 28.7001 25.9954 28.6065 25.9301C28.5175 25.8681 28.4701 25.8119 28.4603 25.7996C28.455 25.793 28.4769 25.8196 28.5302 25.9145L32.3906 23.7473C32.1616 23.3394 31.7858 22.7497 31.1375 22.2979C30.441 21.8126 29.6679 21.6453 28.9171 21.6453V26.0723ZM31.5448 26.7607L31.9224 26.5485L29.7536 22.689L29.376 22.9012L31.5448 26.7607ZM32.7679 23.5347C32.5383 23.1259 32.1476 22.506 31.4735 22.0087C30.7525 21.4768 29.886 21.2122 28.9171 21.2122V25.6393C28.9583 25.6393 28.9815 25.642 28.9896 25.6431C28.9973 25.6442 28.9918 25.644 28.9761 25.6391C28.9601 25.6342 28.9384 25.6259 28.9134 25.6132C28.8884 25.6005 28.8653 25.586 28.8452 25.5712C28.8044 25.5411 28.7914 25.521 28.804 25.5371C28.8107 25.5457 28.823 25.5623 28.841 25.5902C28.8591 25.6182 28.881 25.6546 28.9081 25.7028L32.7679 23.5347ZM28.9171 21.2122C27.6846 21.2122 26.475 21.6604 25.6182 22.6886C24.8099 23.6586 24.5385 24.8778 24.5385 26.0239H28.9656C28.9656 25.7831 28.9948 25.6321 29.0185 25.5525C29.0412 25.4762 29.0536 25.4813 29.0191 25.5227C28.98 25.5697 28.9236 25.6113 28.87 25.6343C28.8231 25.6544 28.8273 25.6393 28.9171 25.6393V21.2122ZM24.5385 26.0239C24.5385 27.2068 24.884 28.387 25.656 29.3136C26.4519 30.2687 27.6126 30.8355 28.9171 30.8355V26.4084C28.9131 26.4084 28.9426 26.4089 28.9863 26.4295C29.0288 26.4496 29.0519 26.4733 29.0571 26.4795C29.0653 26.4894 28.9656 26.3706 28.9656 26.0239H24.5385ZM28.9171 30.8355C29.8858 30.8355 30.7523 30.5711 31.4734 30.0391C32.1476 29.5418 32.5384 28.9218 32.7681 28.5127L28.9079 26.3453C28.8809 26.3934 28.859 26.4297 28.8408 26.4578C28.8229 26.4857 28.8106 26.5022 28.8039 26.5108C28.7914 26.5268 28.8044 26.5067 28.8453 26.4765C28.8655 26.4617 28.8886 26.4472 28.9136 26.4345C28.9385 26.4218 28.9603 26.4135 28.9762 26.4086C28.9919 26.4037 28.9974 26.4035 28.9897 26.4046C28.9816 26.4057 28.9584 26.4084 28.9171 26.4084V30.8355ZM31.9224 25.4993L31.5448 25.2871L29.376 29.1466L29.7536 29.3587L31.9224 25.4993ZM28.5301 26.1335C28.4768 26.2284 28.4549 26.2549 28.4603 26.2483C28.4701 26.2359 28.5176 26.1796 28.6066 26.1176C28.7003 26.0523 28.7969 26.0107 28.8758 25.989C28.9466 25.9696 28.9699 25.9754 28.9171 25.9754V30.4025C29.6676 30.4025 30.4408 30.2353 31.1374 29.75C31.7858 29.2982 32.1617 28.7083 32.3908 28.3001L28.5301 26.1335Z" fill="#D173CC" mask="url(#path-7-inside-1_117_3)"/>
<path d="M46.0483 27.9726V27.1188H46.8426V26.8047H46.0483V26.3793H46.8423V26.0652H46.171L47.2661 24.0754H46.7143L45.8199 25.8054H45.792L44.8976 24.0754H44.3433L45.4354 26.0652H44.7583V26.3796H45.5611V26.8051H44.759V27.1188H45.5611V27.9726H46.0489H46.0483Z" fill="#D173CC"/>
<path d="M42.99 19.6747C42.99 22.8784 40.4558 25.4499 37.3609 25.4499C34.2659 25.4499 31.7317 22.8784 31.7317 19.6747C31.7317 16.471 34.2659 13.8995 37.3609 13.8995C40.4558 13.8995 42.99 16.471 42.99 19.6747Z" stroke="#D173CC" stroke-width="1.29904"/>
<path d="M39.6202 27.0629C39.836 28.3227 40.4144 29.4878 41.2812 30.4092C42.148 31.3306 43.2639 31.9663 44.4859 32.235C45.7079 32.5036 46.9805 32.3929 48.1407 31.917C49.3008 31.4411 50.2958 30.6218 50.9982 29.5639C51.7005 28.506 52.0783 27.2576 52.0832 25.9787C52.0881 24.6997 51.7199 23.4484 51.0256 22.3849C50.3313 21.3213 49.3427 20.4941 48.1862 20.0089C47.0297 19.5238 45.758 19.4029 44.534 19.6617L44.8139 21.0481C45.7683 20.8463 46.7597 20.9405 47.6614 21.3188C48.5631 21.697 49.3339 22.342 49.8752 23.1712C50.4165 24.0003 50.7036 24.976 50.6998 25.9731C50.696 26.9703 50.4014 27.9436 49.8538 28.7684C49.3062 29.5932 48.5305 30.232 47.6259 30.603C46.7214 30.974 45.7292 31.0603 44.7765 30.8509C43.8237 30.6415 42.9537 30.1459 42.2779 29.4275C41.602 28.7091 41.1511 27.8007 40.9828 26.8185L39.6202 27.0629Z" fill="#D173CC"/>
<path d="M34.8849 27.2795C34.6691 28.5392 34.0908 29.7044 33.2239 30.6258C32.3571 31.5472 31.2412 32.1829 30.0192 32.4515C28.7972 32.7201 27.5246 32.6094 26.3645 32.1336C25.2043 31.6577 24.2093 30.8384 23.507 29.7804C22.8046 28.7225 22.4268 27.4742 22.4219 26.1952C22.417 24.9163 22.7853 23.6649 23.4795 22.6014C24.1738 21.5379 25.1625 20.7106 26.319 20.2255C27.4754 19.7404 28.7471 19.6195 29.9711 19.8783L29.6912 21.2646C28.7369 21.0628 27.7454 21.1571 26.8437 21.5353C25.942 21.9135 25.1712 22.5585 24.6299 23.3877C24.0886 24.2169 23.8015 25.1925 23.8053 26.1897C23.8091 27.1868 24.1037 28.1601 24.6513 28.9849C25.1989 29.8098 25.9747 30.4486 26.8792 30.8196C27.7837 31.1906 28.7759 31.2769 29.7287 31.0675C30.6814 30.858 31.5514 30.3624 32.2272 29.644C32.9031 28.9256 33.354 28.0172 33.5223 27.035L34.8849 27.2795Z" fill="#D173CC"/>
<path d="M35.25 16.7212H36.7834C37.4696 16.7212 37.9759 17.0447 38.0912 17.691H35.25V18.2822H38.0912C37.9809 18.9381 37.5 19.2514 36.8183 19.2514H35.25V19.9922L37.7458 22.875H38.9327L36.4284 19.9972H36.9094C38.2121 19.9871 38.8584 19.167 38.9839 18.2822H39.75V17.691H38.9934C38.9484 17.2534 38.7926 16.9401 38.5474 16.7168H39.75V16.125H35.25V16.7212Z" fill="#D173CC"/>
</g>
<defs>
<clipPath id="clip0_117_3">
<rect width="51" height="45.3333" fill="white" transform="translate(11 9)"/>
</clipPath>
</defs>
</svg>
