<svg width="74" height="73" viewBox="0 0 74 73" fill="none" xmlns="http://www.w3.org/2000/svg">
<ellipse cx="37" cy="36.5" rx="37" ry="36.5" fill="#FFF2F2"/>
<path fill-rule="evenodd" clip-rule="evenodd" d="M27.2137 25.3498L19.6995 17.6608L20.1033 17.2661L27.4066 24.7392L30.176 21.6439L30.3689 21.4283L30.5798 21.6265L39.1289 29.6627L45.4017 24.068L45.603 23.8885L45.7915 24.0813L53.6553 32.1198L53.2516 32.5147L45.5764 24.6689L39.3119 30.2562L39.1189 30.4283L38.9305 30.2512L30.4039 22.2361L27.6261 25.3407L27.4248 25.5658L27.2137 25.3498Z" fill="#DA7070"/>
<rect x="21.407" y="27.3568" width="6.77481" height="23.2013" rx="0.416648" stroke="#DA7070" stroke-width="0.564706"/>
<rect x="33.2902" y="32.5995" width="6.77481" height="17.9588" rx="0.416648" stroke="#DA7070" stroke-width="0.564706"/>
<rect x="45.1731" y="35.0458" width="6.77481" height="15.5123" rx="0.416648" stroke="#DA7070" stroke-width="0.564706"/>
<ellipse cx="45.4706" cy="23.9339" rx="4.23529" ry="4.33379" fill="#DA7070"/>
<path d="M44.1003 22.6414H45.0342C45.4521 22.6414 45.7604 22.8384 45.8306 23.232H44.1003V23.592H45.8306C45.7635 23.9915 45.4706 24.1823 45.0554 24.1823H44.1003V24.6334L45.6203 26.389H46.3431L44.818 24.6365H45.1109C45.9043 24.6303 46.2979 24.1309 46.3743 23.592H46.8408V23.232H46.3801C46.3527 22.9655 46.2578 22.7747 46.1084 22.6387H46.8408V22.2783H44.1003V22.6414Z" fill="white"/>
</svg>
