<svg width="74" height="73" viewBox="0 0 74 73" fill="none" xmlns="http://www.w3.org/2000/svg">
<ellipse cx="37" cy="36.5" rx="37" ry="36.5" fill="#E9FBF2"/>
<g clip-path="url(#clip0_117_5)">
<path d="M59 21C57.346 21 56 22.346 56 24C56 24.888 56.396 25.679 57.011 26.229L48.211 40.26C47.8301 40.0892 47.4174 40.0007 47 40C46.132 40 45.356 40.376 44.807 40.967L35.734 35.222C35.902 34.848 36 34.436 36 34C36 32.346 34.654 31 33 31C31.346 31 30 32.346 30 34C30 34.904 30.41 35.706 31.044 36.256L24.149 47.231C23.7851 47.0785 23.3945 47 23 47C21.346 47 20 48.346 20 50C20 51.654 21.346 53 23 53C24.654 53 26 51.654 26 50C26 49.112 25.605 48.322 24.99 47.772L31.894 36.782C32.237 36.92 32.609 37 33 37C33.859 37 34.629 36.633 35.176 36.053L44.254 41.801C44.0872 42.1788 44.0007 42.5871 44 43C44 44.654 45.346 46 47 46C48.654 46 50 44.654 50 43C50 42.137 49.629 41.364 49.043 40.816L57.853 26.77C58.207 26.917 58.594 27 59 27C60.654 27 62 25.654 62 24C62 22.346 60.654 21 59 21ZM25 50C25 51.103 24.103 52 23 52C21.897 52 21 51.103 21 50C21 48.897 21.897 48 23 48C24.103 48 25 48.897 25 50ZM33 36C31.897 36 31 35.103 31 34C31 32.897 31.897 32 33 32C34.103 32 35 32.897 35 34C35 35.103 34.103 36 33 36ZM47 45C45.897 45 45 44.103 45 43C45 41.897 45.897 41 47 41C48.103 41 49 41.897 49 43C49 44.103 48.103 45 47 45ZM59 26C57.897 26 57 25.103 57 24C57 22.897 57.897 22 59 22C60.103 22 61 22.897 61 24C61 25.103 60.103 26 59 26Z" fill="#63AE8C"/>
</g>
<defs>
<clipPath id="clip0_117_5">
<rect width="42" height="32" fill="white" transform="translate(20 21)"/>
</clipPath>
</defs>
</svg>
