<svg width="1431" height="357" viewBox="0 0 1431 357" fill="none" xmlns="http://www.w3.org/2000/svg">
<g filter="url(#filter0_d_33_424)">
<ellipse cx="222.48" cy="294.568" rx="21.4401" ry="21.1294" fill="white"/>
<path d="M243.765 294.568C243.765 306.15 234.238 315.542 222.48 315.542C210.723 315.542 201.195 306.15 201.195 294.568C201.195 282.987 210.723 273.594 222.48 273.594C234.238 273.594 243.765 282.987 243.765 294.568Z" stroke="black" stroke-opacity="0.17" stroke-width="0.310726"/>
</g>
<path d="M229.277 297.481C229.275 299.026 228.661 300.507 227.569 301.599C226.477 302.691 224.996 303.306 223.451 303.307H219.567V296.615L227.543 293.597V291.655L219.567 294.673V291.76L227.543 288.742V286.8L219.567 289.818V283.887H217.625V290.553L214.712 291.655V293.597L217.625 292.495V295.408L214.712 296.51V298.452L217.625 297.35V305.249H223.451C225.511 305.247 227.485 304.428 228.941 302.971C230.397 301.515 231.217 299.541 231.219 297.481H229.277Z" fill="#9C5CFF"/>
<g filter="url(#filter1_d_33_424)">
<ellipse cx="1220.53" cy="274.993" rx="21.4401" ry="21.1294" fill="white"/>
<path d="M1241.82 274.993C1241.82 286.574 1232.29 295.967 1220.53 295.967C1208.78 295.967 1199.25 286.574 1199.25 274.993C1199.25 263.411 1208.78 254.019 1220.53 254.019C1232.29 254.019 1241.82 263.411 1241.82 274.993Z" stroke="black" stroke-opacity="0.27" stroke-width="0.310726"/>
</g>
<g filter="url(#filter2_d_33_424)">
<ellipse cx="1358.18" cy="240.813" rx="21.4401" ry="21.1294" fill="white"/>
<path d="M1379.47 240.813C1379.47 252.394 1369.94 261.787 1358.18 261.787C1346.43 261.787 1336.9 252.394 1336.9 240.813C1336.9 229.231 1346.43 219.839 1358.18 219.839C1369.94 219.839 1379.47 229.231 1379.47 240.813Z" stroke="black" stroke-opacity="0.27" stroke-width="0.310726"/>
</g>
<g filter="url(#filter3_d_33_424)">
<ellipse cx="1352.28" cy="79.5459" rx="21.4401" ry="21.1294" fill="white"/>
<path d="M1373.57 79.5459C1373.57 91.1274 1364.04 100.52 1352.28 100.52C1340.52 100.52 1331 91.1274 1331 79.5459C1331 67.9644 1340.52 58.5719 1352.28 58.5719C1364.04 58.5719 1373.57 67.9644 1373.57 79.5459Z" stroke="black" stroke-opacity="0.27" stroke-width="0.310726"/>
</g>
<g filter="url(#filter4_d_33_424)">
<ellipse cx="1269.01" cy="175.871" rx="21.4401" ry="21.1294" fill="white"/>
<path d="M1290.29 175.871C1290.29 187.452 1280.76 196.845 1269.01 196.845C1257.25 196.845 1247.72 187.452 1247.72 175.871C1247.72 164.289 1257.25 154.897 1269.01 154.897C1280.76 154.897 1290.29 164.289 1290.29 175.871Z" stroke="black" stroke-opacity="0.27" stroke-width="0.310726"/>
</g>
<g filter="url(#filter5_d_33_424)">
<ellipse cx="1200.34" cy="68.9811" rx="21.4401" ry="21.1294" fill="white"/>
<path d="M1221.62 68.9811C1221.62 80.5626 1212.09 89.9551 1200.34 89.9551C1188.58 89.9551 1179.05 80.5626 1179.05 68.9811C1179.05 57.3996 1188.58 48.007 1200.34 48.007C1212.09 48.007 1221.62 57.3996 1221.62 68.9811Z" stroke="black" stroke-opacity="0.27" stroke-width="0.310726"/>
</g>
<g filter="url(#filter6_d_33_424)">
<ellipse cx="275.303" cy="172.142" rx="21.4401" ry="21.1294" fill="white" shape-rendering="crispEdges"/>
<path d="M275.303 193.427C287.228 193.427 296.899 183.9 296.899 172.142C296.899 160.385 287.228 150.858 275.303 150.858C263.379 150.858 253.708 160.385 253.708 172.142C253.708 183.9 263.379 193.427 275.303 193.427Z" stroke="black" stroke-opacity="0.1" stroke-width="0.310726" shape-rendering="crispEdges"/>
</g>
<g filter="url(#filter7_d_33_424)">
<ellipse cx="90.1105" cy="212.848" rx="21.4401" ry="21.1294" fill="white"/>
<path d="M111.395 212.848C111.395 224.429 101.868 233.822 90.1105 233.822C78.3531 233.822 68.8258 224.429 68.8258 212.848C68.8258 201.266 78.3531 191.874 90.1105 191.874C101.868 191.874 111.395 201.266 111.395 212.848Z" stroke="black" stroke-opacity="0.14" stroke-width="0.310726"/>
</g>
<g filter="url(#filter8_f_33_424)">
<ellipse cx="90.0877" cy="212.87" rx="21.463" ry="21.1519" fill="white"/>
<path d="M90.0877 234.177C102.025 234.177 111.706 224.64 111.706 212.87C111.706 201.1 102.025 191.563 90.0877 191.563C78.1503 191.563 68.4692 201.1 68.4692 212.87C68.4692 224.64 78.1503 234.177 90.0877 234.177Z" stroke="#3999FA" stroke-width="0.311057" stroke-linecap="round"/>
</g>
<path d="M91.5922 222.326C88.0925 222.61 85.2827 220.6 83.915 217.103L93.0573 216.362L92.9004 214.427L83.3497 215.201C83.2127 214.566 83.1177 213.923 83.065 213.275C83.0391 212.956 83.0226 212.632 83.0117 212.306L92.665 211.523L92.5081 209.588L83.0591 210.353C83.3613 206.775 85.0002 203.377 90.0233 202.969C93.7524 202.667 95.5067 204.13 97.2744 206.756L98.8854 205.671C97.1056 203.028 94.7812 200.635 89.8664 201.034C83.7158 201.532 80.5311 206.052 81.1293 213.432C81.6835 220.27 86.0504 224.724 91.7491 224.262C96.6638 223.864 98.5728 221.129 99.9036 218.233L98.1388 217.422C96.8172 220.299 95.3213 222.024 91.5922 222.326Z" fill="#3999FA"/>
<path d="M286.956 170.2V168.258H282.144L283.072 161.461H281.129L279.187 178.939L276.274 164.374H274.332L271.419 178.939L269.477 161.461H267.535L268.463 168.258H263.651V170.2H268.727L269.124 173.113H263.651V175.055H269.389L270.448 182.823H272.39L275.303 168.258L278.216 182.823H280.158L281.218 175.055H286.956V173.113H281.483L281.88 170.2H286.956Z" fill="#FFCD46"/>
<g clip-path="url(#clip0_33_424)">
<path d="M1215.15 263.899L1220.31 265.099C1222.62 265.637 1224.07 267.121 1223.95 269.384L1214.39 267.16L1213.93 269.147L1223.49 271.372C1222.6 273.491 1220.74 274.168 1218.45 273.634L1213.17 272.406L1212.59 274.897L1218.73 286.545L1222.72 287.474L1216.55 275.837L1218.17 276.214C1222.56 277.2 1225.37 274.948 1226.49 272.071L1229.06 272.671L1229.53 270.683L1226.98 270.091C1227.17 268.584 1226.89 267.408 1226.24 266.465L1230.29 267.407L1230.75 265.417L1215.62 261.894L1215.15 263.899Z" fill="#FF5858"/>
</g>
<path d="M1350.42 241.793H1354.24C1354.46 242.696 1354.6 243.617 1354.6 244.571C1354.6 247.26 1353.17 249.418 1350.57 249.952V252.31H1365.95V249.901H1355.26V249.651C1356.86 248.631 1357.46 246.843 1357.46 244.419C1357.46 243.516 1357.32 242.646 1357.13 241.793H1363.52V239.906H1356.67C1356.31 238.502 1355.95 237.08 1355.95 235.542C1355.95 233.068 1357.98 231.53 1360.96 231.53C1362.37 231.549 1363.76 231.857 1365.04 232.433V229.891C1363.7 229.316 1362.26 229.015 1360.8 229.005C1355.98 229.005 1352.98 231.512 1352.98 235.542C1352.98 237.047 1353.36 238.484 1353.76 239.906H1350.42V241.793V241.793Z" fill="#3999FA"/>
<path d="M1360.31 68.8647H1358.11L1352.28 79.546L1346.45 68.8647H1344.25L1350.14 79.546H1344.51V81.488H1351.31V84.4011H1344.51V86.3431H1351.31V90.2272H1353.25V86.3431H1360.05V84.4011H1353.25V81.488H1360.05V79.546H1354.42L1360.31 68.8647Z" fill="#09A0A0"/>
<path d="M1207.32 61.8954L1199.14 58.8201L1195.39 68.8182L1192.66 67.7931L1191.98 69.6109L1194.7 70.636L1193.68 73.3627L1190.95 72.3376L1190.27 74.1555L1192.99 75.1805L1190.94 80.634L1192.76 81.3174L1194.81 75.8639L1202.99 78.9392L1203.68 77.1214L1195.5 74.0461L1196.52 71.3194L1202.88 73.7113C1204.33 74.2532 1205.93 74.1992 1207.34 73.5612C1208.74 72.9231 1209.84 71.7532 1210.39 70.308L1210.73 69.3991C1211.27 67.9526 1211.22 66.3503 1210.58 64.9436C1209.94 63.5369 1208.77 62.4407 1207.32 61.8954V61.8954ZM1208.57 69.6246C1208.2 70.588 1207.47 71.3679 1206.54 71.7932C1205.6 72.2186 1204.53 72.2546 1203.57 71.8935L1197.2 69.5016L1200.28 61.3214L1206.64 63.7133C1207.6 64.0768 1208.38 64.8076 1208.81 65.7454C1209.24 66.6832 1209.27 67.7514 1208.91 68.7157L1208.57 69.6246Z" fill="#3999FA"/>
<path d="M1259.62 180.657C1258.94 183.835 1260.79 186.813 1264.56 188.289L1263.86 190.545L1265.8 191.143L1266.49 188.887C1270.81 189.858 1274.14 188.33 1275.21 184.875C1276.12 181.925 1274.89 179.675 1271.46 177.561L1270.23 176.8L1272.41 169.746C1274.43 170.594 1275.49 172.149 1275.33 173.932L1278.05 174.775C1278.66 171.711 1276.77 168.793 1273.14 167.41L1273.83 165.169L1271.89 164.57L1271.19 166.858C1267.46 166.172 1264.27 167.713 1263.31 170.837C1262.47 173.535 1263.68 175.998 1266.57 177.776L1267.61 178.426L1265.3 185.905C1263.26 184.931 1262.16 183.308 1262.33 181.495L1259.62 180.657V180.657ZM1268.11 175.485C1266.33 174.399 1265.62 173.037 1266.07 171.569C1266.61 169.818 1268.32 168.928 1270.46 169.21L1268.45 175.695L1268.11 175.487L1268.11 175.485ZM1269.99 179.872C1272.19 181.209 1272.93 182.528 1272.41 184.216C1271.78 186.252 1269.83 187.134 1267.22 186.551L1269.39 179.51L1269.99 179.87L1269.99 179.872Z" fill="#5B3DD1"/>
<g filter="url(#filter9_f_33_424)">
<path d="M275.925 194.476C288.061 194.476 297.93 184.775 297.93 172.773C297.93 160.77 288.061 151.07 275.925 151.07C263.789 151.07 253.921 160.77 253.921 172.773C253.921 184.775 263.789 194.476 275.925 194.476Z" stroke="#F9E129" stroke-opacity="0.15" stroke-width="2.37175" stroke-linecap="round"/>
</g>
<g filter="url(#filter10_f_33_424)">
<path d="M171.294 107.156C183.125 107.156 192.744 97.7 192.744 86C192.744 74.3 183.125 64.844 171.294 64.844C159.464 64.844 149.844 74.3 149.844 86C149.844 97.7 159.464 107.156 171.294 107.156Z" stroke="#FF5858" stroke-opacity="0.14" stroke-width="2.31199" stroke-linecap="round"/>
</g>
<g filter="url(#filter11_f_33_424)">
<path d="M222.457 315.898C234.395 315.898 244.076 306.361 244.076 294.591C244.076 282.821 234.395 273.283 222.457 273.283C210.52 273.283 200.839 282.821 200.839 294.591C200.839 306.361 210.52 315.898 222.457 315.898Z" stroke="#9C5CFF" stroke-width="0.311057" stroke-linecap="round"/>
</g>
<g filter="url(#filter12_f_33_424)">
<path d="M1220.35 296.276C1232.18 296.276 1241.77 286.828 1241.77 275.168C1241.77 263.509 1232.18 254.061 1220.35 254.061C1208.53 254.061 1198.94 263.509 1198.94 275.168C1198.94 286.828 1208.53 296.276 1220.35 296.276Z" stroke="#FF5858" stroke-width="0.308143" stroke-linecap="round"/>
</g>
<g filter="url(#filter13_f_33_424)">
<path d="M1269.01 197.512C1280.93 197.512 1290.6 187.984 1290.6 176.227C1290.6 164.469 1280.93 154.942 1269.01 154.942C1257.08 154.942 1247.41 164.469 1247.41 176.227C1247.41 187.984 1257.08 197.512 1269.01 197.512Z" stroke="#5B3DD1" stroke-width="0.310726" stroke-linecap="round"/>
</g>
<g filter="url(#filter14_f_33_424)">
<path d="M1200.34 90.0003C1212.26 90.0003 1221.93 80.4729 1221.93 68.7156C1221.93 56.9582 1212.26 47.4308 1200.34 47.4308C1188.41 47.4308 1178.74 56.9582 1178.74 68.7156C1178.74 80.4729 1188.41 90.0003 1200.34 90.0003Z" stroke="#3999FA" stroke-width="0.310726" stroke-linecap="round"/>
</g>
<g filter="url(#filter15_f_33_424)">
<path d="M1352.23 100.831C1364.16 100.831 1373.83 91.3033 1373.83 79.5459C1373.83 67.7885 1364.16 58.2611 1352.23 58.2611C1340.31 58.2611 1330.64 67.7885 1330.64 79.5459C1330.64 91.3033 1340.31 100.831 1352.23 100.831Z" stroke="#09A0A0" stroke-width="0.310726" stroke-linecap="round"/>
</g>
<g filter="url(#filter16_f_33_424)">
<path d="M1358.16 262.143C1370.1 262.143 1379.78 252.605 1379.78 240.835C1379.78 229.065 1370.1 219.528 1358.16 219.528C1346.22 219.528 1336.54 229.065 1336.54 240.835C1336.54 252.605 1346.22 262.143 1358.16 262.143Z" stroke="#3999FA" stroke-width="0.311057" stroke-linecap="round"/>
</g>
<g filter="url(#filter17_d_33_424)">
<ellipse cx="171.436" cy="86.0149" rx="19.4911" ry="19.2086" fill="white"/>
<path d="M190.786 86.0149C190.786 96.5436 182.125 105.082 171.436 105.082C160.748 105.082 152.087 96.5436 152.087 86.0149C152.087 75.4862 160.748 66.9475 171.436 66.9475C182.125 66.9475 190.786 75.4862 190.786 86.0149Z" stroke="black" stroke-opacity="0.11" stroke-width="0.28248"/>
</g>
<g clip-path="url(#clip1_33_424)">
<path d="M172.856 75.6128L171.555 73.6507L160.763 80.8031L169.216 93.5573L167.254 94.8577L168.555 96.8199L170.517 95.5195L172.467 98.4627L174.43 97.1623L172.479 94.219L176.403 91.6181L175.103 89.656L171.178 92.2568L169.228 89.3136L177.077 84.1118L175.776 82.1496L167.927 87.3514L164.026 81.4648L172.856 75.6128Z" fill="#FF5858"/>
</g>
<defs>
<filter id="filter0_d_33_424" x="199.797" y="273.439" width="45.3659" height="44.7446" filterUnits="userSpaceOnUse" color-interpolation-filters="sRGB">
<feFlood flood-opacity="0" result="BackgroundImageFix"/>
<feColorMatrix in="SourceAlpha" type="matrix" values="0 0 0 0 0 0 0 0 0 0 0 0 0 0 0 0 0 0 127 0" result="hardAlpha"/>
<feOffset dy="1.2429"/>
<feGaussianBlur stdDeviation="0.621452"/>
<feComposite in2="hardAlpha" operator="out"/>
<feColorMatrix type="matrix" values="0 0 0 0 0 0 0 0 0 0 0 0 0 0 0 0 0 0 0.25 0"/>
<feBlend mode="normal" in2="BackgroundImageFix" result="effect1_dropShadow_33_424"/>
<feBlend mode="normal" in="SourceGraphic" in2="effect1_dropShadow_33_424" result="shape"/>
</filter>
<filter id="filter1_d_33_424" x="1197.85" y="253.863" width="45.3661" height="44.7446" filterUnits="userSpaceOnUse" color-interpolation-filters="sRGB">
<feFlood flood-opacity="0" result="BackgroundImageFix"/>
<feColorMatrix in="SourceAlpha" type="matrix" values="0 0 0 0 0 0 0 0 0 0 0 0 0 0 0 0 0 0 127 0" result="hardAlpha"/>
<feOffset dy="1.2429"/>
<feGaussianBlur stdDeviation="0.621452"/>
<feComposite in2="hardAlpha" operator="out"/>
<feColorMatrix type="matrix" values="0 0 0 0 0 0 0 0 0 0 0 0 0 0 0 0 0 0 0.25 0"/>
<feBlend mode="normal" in2="BackgroundImageFix" result="effect1_dropShadow_33_424"/>
<feBlend mode="normal" in="SourceGraphic" in2="effect1_dropShadow_33_424" result="shape"/>
</filter>
<filter id="filter2_d_33_424" x="1335.5" y="219.683" width="45.366" height="44.7446" filterUnits="userSpaceOnUse" color-interpolation-filters="sRGB">
<feFlood flood-opacity="0" result="BackgroundImageFix"/>
<feColorMatrix in="SourceAlpha" type="matrix" values="0 0 0 0 0 0 0 0 0 0 0 0 0 0 0 0 0 0 127 0" result="hardAlpha"/>
<feOffset dy="1.2429"/>
<feGaussianBlur stdDeviation="0.621452"/>
<feComposite in2="hardAlpha" operator="out"/>
<feColorMatrix type="matrix" values="0 0 0 0 0 0 0 0 0 0 0 0 0 0 0 0 0 0 0.25 0"/>
<feBlend mode="normal" in2="BackgroundImageFix" result="effect1_dropShadow_33_424"/>
<feBlend mode="normal" in="SourceGraphic" in2="effect1_dropShadow_33_424" result="shape"/>
</filter>
<filter id="filter3_d_33_424" x="1329.6" y="58.4165" width="45.366" height="44.7446" filterUnits="userSpaceOnUse" color-interpolation-filters="sRGB">
<feFlood flood-opacity="0" result="BackgroundImageFix"/>
<feColorMatrix in="SourceAlpha" type="matrix" values="0 0 0 0 0 0 0 0 0 0 0 0 0 0 0 0 0 0 127 0" result="hardAlpha"/>
<feOffset dy="1.2429"/>
<feGaussianBlur stdDeviation="0.621452"/>
<feComposite in2="hardAlpha" operator="out"/>
<feColorMatrix type="matrix" values="0 0 0 0 0 0 0 0 0 0 0 0 0 0 0 0 0 0 0.25 0"/>
<feBlend mode="normal" in2="BackgroundImageFix" result="effect1_dropShadow_33_424"/>
<feBlend mode="normal" in="SourceGraphic" in2="effect1_dropShadow_33_424" result="shape"/>
</filter>
<filter id="filter4_d_33_424" x="1246.32" y="154.742" width="45.3661" height="44.7446" filterUnits="userSpaceOnUse" color-interpolation-filters="sRGB">
<feFlood flood-opacity="0" result="BackgroundImageFix"/>
<feColorMatrix in="SourceAlpha" type="matrix" values="0 0 0 0 0 0 0 0 0 0 0 0 0 0 0 0 0 0 127 0" result="hardAlpha"/>
<feOffset dy="1.2429"/>
<feGaussianBlur stdDeviation="0.621452"/>
<feComposite in2="hardAlpha" operator="out"/>
<feColorMatrix type="matrix" values="0 0 0 0 0 0 0 0 0 0 0 0 0 0 0 0 0 0 0.25 0"/>
<feBlend mode="normal" in2="BackgroundImageFix" result="effect1_dropShadow_33_424"/>
<feBlend mode="normal" in="SourceGraphic" in2="effect1_dropShadow_33_424" result="shape"/>
</filter>
<filter id="filter5_d_33_424" x="1177.65" y="47.8517" width="45.3661" height="44.7446" filterUnits="userSpaceOnUse" color-interpolation-filters="sRGB">
<feFlood flood-opacity="0" result="BackgroundImageFix"/>
<feColorMatrix in="SourceAlpha" type="matrix" values="0 0 0 0 0 0 0 0 0 0 0 0 0 0 0 0 0 0 127 0" result="hardAlpha"/>
<feOffset dy="1.2429"/>
<feGaussianBlur stdDeviation="0.621452"/>
<feComposite in2="hardAlpha" operator="out"/>
<feColorMatrix type="matrix" values="0 0 0 0 0 0 0 0 0 0 0 0 0 0 0 0 0 0 0.25 0"/>
<feBlend mode="normal" in2="BackgroundImageFix" result="effect1_dropShadow_33_424"/>
<feBlend mode="normal" in="SourceGraphic" in2="effect1_dropShadow_33_424" result="shape"/>
</filter>
<filter id="filter6_d_33_424" x="252.31" y="150.702" width="45.9875" height="45.3659" filterUnits="userSpaceOnUse" color-interpolation-filters="sRGB">
<feFlood flood-opacity="0" result="BackgroundImageFix"/>
<feColorMatrix in="SourceAlpha" type="matrix" values="0 0 0 0 0 0 0 0 0 0 0 0 0 0 0 0 0 0 127 0" result="hardAlpha"/>
<feOffset dy="1.2429"/>
<feGaussianBlur stdDeviation="0.621452"/>
<feComposite in2="hardAlpha" operator="out"/>
<feColorMatrix type="matrix" values="0 0 0 0 0 0 0 0 0 0 0 0 0 0 0 0 0 0 0.25 0"/>
<feBlend mode="normal" in2="BackgroundImageFix" result="effect1_dropShadow_33_424"/>
<feBlend mode="normal" in="SourceGraphic" in2="effect1_dropShadow_33_424" result="shape"/>
</filter>
<filter id="filter7_d_33_424" x="67.4275" y="191.718" width="45.3659" height="44.7445" filterUnits="userSpaceOnUse" color-interpolation-filters="sRGB">
<feFlood flood-opacity="0" result="BackgroundImageFix"/>
<feColorMatrix in="SourceAlpha" type="matrix" values="0 0 0 0 0 0 0 0 0 0 0 0 0 0 0 0 0 0 127 0" result="hardAlpha"/>
<feOffset dy="1.2429"/>
<feGaussianBlur stdDeviation="0.621452"/>
<feComposite in2="hardAlpha" operator="out"/>
<feColorMatrix type="matrix" values="0 0 0 0 0 0 0 0 0 0 0 0 0 0 0 0 0 0 0.25 0"/>
<feBlend mode="normal" in2="BackgroundImageFix" result="effect1_dropShadow_33_424"/>
<feBlend mode="normal" in="SourceGraphic" in2="effect1_dropShadow_33_424" result="shape"/>
</filter>
<filter id="filter8_f_33_424" x="67.0708" y="190.164" width="46.0339" height="45.4117" filterUnits="userSpaceOnUse" color-interpolation-filters="sRGB">
<feFlood flood-opacity="0" result="BackgroundImageFix"/>
<feBlend mode="normal" in="SourceGraphic" in2="BackgroundImageFix" result="shape"/>
<feGaussianBlur stdDeviation="0.621452" result="effect1_foregroundBlur_33_424"/>
</filter>
<filter id="filter9_f_33_424" x="251.492" y="148.641" width="48.8667" height="48.2632" filterUnits="userSpaceOnUse" color-interpolation-filters="sRGB">
<feFlood flood-opacity="0" result="BackgroundImageFix"/>
<feBlend mode="normal" in="SourceGraphic" in2="BackgroundImageFix" result="shape"/>
<feGaussianBlur stdDeviation="0.621452" result="effect1_foregroundBlur_33_424"/>
</filter>
<filter id="filter10_f_33_424" x="147.476" y="62.4764" width="47.6353" height="47.0472" filterUnits="userSpaceOnUse" color-interpolation-filters="sRGB">
<feFlood flood-opacity="0" result="BackgroundImageFix"/>
<feBlend mode="normal" in="SourceGraphic" in2="BackgroundImageFix" result="shape"/>
<feGaussianBlur stdDeviation="0.605795" result="effect1_foregroundBlur_33_424"/>
</filter>
<filter id="filter11_f_33_424" x="199.44" y="271.885" width="46.0339" height="45.4116" filterUnits="userSpaceOnUse" color-interpolation-filters="sRGB">
<feFlood flood-opacity="0" result="BackgroundImageFix"/>
<feBlend mode="normal" in="SourceGraphic" in2="BackgroundImageFix" result="shape"/>
<feGaussianBlur stdDeviation="0.621452" result="effect1_foregroundBlur_33_424"/>
</filter>
<filter id="filter12_f_33_424" x="1197.54" y="252.664" width="45.6258" height="45.0095" filterUnits="userSpaceOnUse" color-interpolation-filters="sRGB">
<feFlood flood-opacity="0" result="BackgroundImageFix"/>
<feBlend mode="normal" in="SourceGraphic" in2="BackgroundImageFix" result="shape"/>
<feGaussianBlur stdDeviation="0.621452" result="effect1_foregroundBlur_33_424"/>
</filter>
<filter id="filter13_f_33_424" x="1246.01" y="153.544" width="45.9874" height="45.3659" filterUnits="userSpaceOnUse" color-interpolation-filters="sRGB">
<feFlood flood-opacity="0" result="BackgroundImageFix"/>
<feBlend mode="normal" in="SourceGraphic" in2="BackgroundImageFix" result="shape"/>
<feGaussianBlur stdDeviation="0.621452" result="effect1_foregroundBlur_33_424"/>
</filter>
<filter id="filter14_f_33_424" x="1177.13" y="45.8219" width="46.4087" height="45.7873" filterUnits="userSpaceOnUse" color-interpolation-filters="sRGB">
<feFlood flood-opacity="0" result="BackgroundImageFix"/>
<feBlend mode="normal" in="SourceGraphic" in2="BackgroundImageFix" result="shape"/>
<feGaussianBlur stdDeviation="0.726783" result="effect1_foregroundBlur_33_424"/>
</filter>
<filter id="filter15_f_33_424" x="1329.24" y="56.8629" width="45.9875" height="45.3659" filterUnits="userSpaceOnUse" color-interpolation-filters="sRGB">
<feFlood flood-opacity="0" result="BackgroundImageFix"/>
<feBlend mode="normal" in="SourceGraphic" in2="BackgroundImageFix" result="shape"/>
<feGaussianBlur stdDeviation="0.621452" result="effect1_foregroundBlur_33_424"/>
</filter>
<filter id="filter16_f_33_424" x="1335.14" y="218.129" width="46.0338" height="45.4116" filterUnits="userSpaceOnUse" color-interpolation-filters="sRGB">
<feFlood flood-opacity="0" result="BackgroundImageFix"/>
<feBlend mode="normal" in="SourceGraphic" in2="BackgroundImageFix" result="shape"/>
<feGaussianBlur stdDeviation="0.621452" result="effect1_foregroundBlur_33_424"/>
</filter>
<filter id="filter17_d_33_424" x="150.815" y="66.8063" width="41.242" height="40.6771" filterUnits="userSpaceOnUse" color-interpolation-filters="sRGB">
<feFlood flood-opacity="0" result="BackgroundImageFix"/>
<feColorMatrix in="SourceAlpha" type="matrix" values="0 0 0 0 0 0 0 0 0 0 0 0 0 0 0 0 0 0 127 0" result="hardAlpha"/>
<feOffset dy="1.12992"/>
<feGaussianBlur stdDeviation="0.56496"/>
<feComposite in2="hardAlpha" operator="out"/>
<feColorMatrix type="matrix" values="0 0 0 0 0 0 0 0 0 0 0 0 0 0 0 0 0 0 0.25 0"/>
<feBlend mode="normal" in2="BackgroundImageFix" result="effect1_dropShadow_33_424"/>
<feBlend mode="normal" in="SourceGraphic" in2="effect1_dropShadow_33_424" result="shape"/>
</filter>
<clipPath id="clip0_33_424">
<rect width="31.0726" height="31.0726" fill="white" transform="translate(1208.94 256.349) rotate(13.1075)"/>
</clipPath>
<clipPath id="clip1_33_424">
<rect width="28.248" height="28.248" fill="white" transform="translate(151.945 82.4114) rotate(-33.5344)"/>
</clipPath>
</defs>
</svg>
