<svg width="14" height="9" viewBox="0 0 14 9" fill="none" xmlns="http://www.w3.org/2000/svg">
<path fill-rule="evenodd" clip-rule="evenodd" d="M0 4.4999C0 4.36729 0.0526784 4.24011 0.146447 4.14635C0.240215 4.05258 0.367392 3.9999 0.5 3.9999H12.293L9.146 0.853899C9.05211 0.760013 8.99937 0.632675 8.99937 0.499899C8.99937 0.367123 9.05211 0.239786 9.146 0.145899C9.23989 0.0520124 9.36722 -0.000732419 9.5 -0.000732422C9.63278 -0.000732425 9.76011 0.0520124 9.854 0.145899L13.854 4.1459C13.9006 4.19234 13.9375 4.24752 13.9627 4.30827C13.9879 4.36901 14.0009 4.43413 14.0009 4.4999C14.0009 4.56567 13.9879 4.63079 13.9627 4.69153C13.9375 4.75228 13.9006 4.80745 13.854 4.8539L9.854 8.8539C9.76011 8.94779 9.63278 9.00053 9.5 9.00053C9.36722 9.00053 9.23989 8.94779 9.146 8.8539C9.05211 8.76001 8.99937 8.63267 8.99937 8.4999C8.99937 8.36712 9.05211 8.23979 9.146 8.1459L12.293 4.9999H0.5C0.367392 4.9999 0.240215 4.94722 0.146447 4.85345C0.0526784 4.75968 0 4.63251 0 4.4999Z" fill="#2566FF"/>
</svg>
